<svg xmlns="http://www.w3.org/2000/svg" style="display: none;">
    <symbol id="fire_icon" viewBox="0 0 19 25">
        <path d="M18.6966 14.6372C18.4102 10.9087 16.6743 8.57221 15.1428 6.5104C13.7248 4.60161 12.5 2.95327 12.5 0.521725C12.5 0.326413 12.3906 0.147897 12.2172 0.0583953C12.0432 -0.0316437 11.8342 -0.0168976 11.676 0.0980438C9.37603 1.74384 7.45698 4.51772 6.78662 7.1644C6.32124 9.00703 6.25967 11.0785 6.25103 12.4466C4.127 11.993 3.64585 8.81582 3.64077 8.7812C3.61685 8.6164 3.51616 8.47299 3.36968 8.39468C3.22168 8.31738 3.04771 8.31176 2.89766 8.38603C2.78628 8.43994 0.163769 9.77246 0.0111815 15.0928C0.0004881 15.2698 0 15.4474 0 15.6249C0 20.7936 4.20581 24.9992 9.375 24.9992C9.38213 24.9997 9.38975 25.0007 9.39585 24.9992C9.3979 24.9992 9.3999 24.9992 9.40244 24.9992C14.5589 24.9844 18.75 20.7845 18.75 15.6249C18.75 15.3649 18.6966 14.6372 18.6966 14.6372ZM9.375 23.9576C7.65176 23.9576 6.25 22.4644 6.25 20.6289C6.25 20.5664 6.24951 20.5033 6.25405 20.426C6.2749 19.6519 6.42192 19.1235 6.58315 18.772C6.8853 19.421 7.42544 20.0176 8.30283 20.0176C8.59072 20.0176 8.82368 19.7846 8.82368 19.4968C8.82368 18.7553 8.83896 17.8998 9.02358 17.1277C9.18789 16.4432 9.58052 15.7148 10.078 15.131C10.2992 15.8888 10.7306 16.5021 11.1517 17.1008C11.7544 17.9572 12.3775 18.8427 12.4869 20.3527C12.4935 20.4422 12.5001 20.5323 12.5001 20.6289C12.5 22.4644 11.0982 23.9576 9.375 23.9576Z"/>
    </symbol>
    <symbol id="game_icon1" viewBox="0 0 30 30">
        <path d="M21.1164 0H8.62817C7.42446 0 6.44434 0.980123 6.44434 2.18383V27.5614C6.44434 28.7656 7.42446 29.7458 8.62817 29.7458H21.1159C22.3201 29.7458 23.3003 28.7656 23.3003 27.5619V2.18383C23.3003 0.980123 22.3201 0 21.1164 0ZM7.43586 3.9661H22.3087V22.8051H7.43586V3.9661ZM8.62817 0.991525H21.1159C21.7738 0.991525 22.3087 1.52645 22.3087 2.18383V2.97458H7.43586V2.18383C7.43586 1.52645 7.97079 0.991525 8.62817 0.991525ZM21.1164 28.7542H8.62817C7.97079 28.7542 7.43586 28.2193 7.43586 27.5619V23.7966H22.3087V27.5619C22.3087 28.2193 21.7738 28.7542 21.1164 28.7542Z"/>
        <path d="M14.8725 24.2924C13.7788 24.2924 12.8894 25.1818 12.8894 26.2754C12.8894 27.3691 13.7788 28.2585 14.8725 28.2585C15.9661 28.2585 16.8555 27.3691 16.8555 26.2754C16.8555 25.1818 15.9661 24.2924 14.8725 24.2924ZM14.8725 27.267C14.3256 27.267 13.8809 26.8223 13.8809 26.2754C13.8809 25.7286 14.3256 25.2839 14.8725 25.2839C15.4193 25.2839 15.864 25.7286 15.864 26.2754C15.864 26.8223 15.4193 27.267 14.8725 27.267Z"/>
        <path d="M12.8893 2.47881H14.8724C15.1465 2.47881 15.3681 2.25721 15.3681 1.98305C15.3681 1.7089 15.1465 1.48729 14.8724 1.48729H12.8893C12.6152 1.48729 12.3936 1.7089 12.3936 1.98305C12.3936 2.25721 12.6152 2.47881 12.8893 2.47881Z"/>
        <path d="M16.3598 2.47881H16.8555C17.1297 2.47881 17.3513 2.25721 17.3513 1.98305C17.3513 1.7089 17.1297 1.48729 16.8555 1.48729H16.3598C16.0856 1.48729 15.864 1.7089 15.864 1.98305C15.864 2.25721 16.0856 2.47881 16.3598 2.47881Z"/>
        <path d="M28.0656 2.26513C27.8718 2.07129 27.5585 2.07129 27.3646 2.26513C27.1708 2.45898 27.1708 2.7723 27.3646 2.96614C29.2168 4.81831 29.2168 7.83205 27.3646 9.68472C27.1708 9.87856 27.1708 10.1919 27.3646 10.3857C27.4613 10.4824 27.5882 10.531 27.7151 10.531C27.842 10.531 27.969 10.4824 28.0656 10.3857C30.3045 8.14736 30.3045 4.504 28.0656 2.26513Z"/>
        <path d="M25.978 3.39349C25.7841 3.19965 25.4708 3.19965 25.277 3.39349C25.0831 3.58733 25.0831 3.90066 25.277 4.0945C25.8902 4.70776 26.2278 5.52477 26.2278 6.39434C26.2278 7.26391 25.8902 8.08043 25.277 8.69369C25.0831 8.88753 25.0831 9.20085 25.277 9.3947C25.3736 9.49137 25.5006 9.53996 25.6275 9.53996C25.7544 9.53996 25.8813 9.49137 25.978 9.3947C26.7786 8.59454 27.2194 7.52865 27.2194 6.39434C27.2194 5.26004 26.7791 4.19365 25.978 3.39349Z"/>
        <path d="M2.38016 2.96614C2.574 2.7723 2.574 2.45898 2.38016 2.26513C2.18631 2.07129 1.87299 2.07129 1.67915 2.26513C-0.559716 4.504 -0.559716 8.14686 1.67915 10.3857C1.77582 10.4824 1.90274 10.531 2.02965 10.531C2.15657 10.531 2.28348 10.4824 2.38016 10.3857C2.574 10.1919 2.574 9.87856 2.38016 9.68472C0.527491 7.83255 0.527491 4.81881 2.38016 2.96614Z"/>
        <path d="M4.46779 3.25666C4.27395 3.06282 3.96062 3.06282 3.76678 3.25666C2.96612 4.05683 2.52539 5.12272 2.52539 6.25702C2.52539 7.39133 2.96612 8.45722 3.76678 9.25787C3.86345 9.35455 3.99037 9.40313 4.11728 9.40313C4.2442 9.40313 4.37112 9.35455 4.46779 9.25787C4.66163 9.06403 4.66163 8.75071 4.46779 8.55686C3.85453 7.94361 3.51692 7.12659 3.51692 6.25702C3.51692 5.38745 3.85403 4.57093 4.46779 3.95767C4.66114 3.76433 4.66114 3.45051 4.46779 3.25666Z"/>
    </symbol>
    <symbol id="game_icon2" viewBox="0 0 32 32">
        <path d="M2.66253 12.7797C2.80406 12.7805 2.9401 12.7249 3.04059 12.6252L5.17054 10.4953C5.37934 10.2865 5.37934 9.94796 5.17054 9.73917C4.96174 9.53037 4.62321 9.53037 4.41441 9.73917L2.28446 11.8691C2.18366 11.9691 2.12695 12.1052 2.12695 12.2472C2.12695 12.3892 2.18366 12.5253 2.28446 12.6252C2.38495 12.7249 2.52099 12.7805 2.66253 12.7797Z"/>
        <path d="M2.66253 15.9746C2.80406 15.9754 2.9401 15.9198 3.04059 15.8202L8.36545 10.4953C8.57425 10.2865 8.57425 9.94796 8.36545 9.73916C8.15665 9.53037 7.81812 9.53037 7.60932 9.73916L2.28446 15.064C2.18366 15.164 2.12695 15.3001 2.12695 15.4421C2.12695 15.5841 2.18366 15.7202 2.28446 15.8202C2.38495 15.9198 2.52099 15.9754 2.66253 15.9746Z"/>
        <path d="M30.3517 0H16.5071C15.6248 0 14.9096 0.715206 14.9096 1.59746V7.4548H2.66243C1.19201 7.4548 0 8.64681 0 10.1172V23.9619C0 25.4323 1.19201 26.6243 2.66243 26.6243H8.51977V28.7542H6.92232C6.04006 28.7542 5.32486 29.4694 5.32486 30.3517C5.32486 31.2339 6.04006 31.9492 6.92232 31.9492H30.3517C31.2339 31.9492 31.9492 31.2339 31.9492 30.3517V1.59746C31.9492 0.715206 31.2339 0 30.3517 0ZM2.66243 8.51977H21.8319C22.7142 8.51977 23.4294 9.23498 23.4294 10.1172V22.8969H1.06497V10.1172C1.06497 9.23498 1.78018 8.51977 2.66243 8.51977ZM1.06497 23.9619H23.4294C23.4294 24.8441 22.7142 25.5593 21.8319 25.5593H2.66243C1.78018 25.5593 1.06497 24.8441 1.06497 23.9619ZM9.58475 26.6243H14.9096V28.7542H9.58475V26.6243ZM16.5071 30.8842H6.92232C6.62823 30.8842 6.38983 30.6458 6.38983 30.3517C6.38983 30.0576 6.62823 29.8192 6.92232 29.8192H17.572C17.8661 29.8192 18.1045 30.0576 18.1045 30.3517C18.1045 30.6458 17.8661 30.8842 17.572 30.8842H16.5071ZM30.8842 30.3517C30.8842 30.6458 30.6458 30.8842 30.3517 30.8842H19.0736C19.2462 30.396 19.1715 29.8544 18.8732 29.4312C18.5748 29.008 18.0898 28.7557 17.572 28.7542H15.9746V26.6243H21.8319C23.3023 26.6243 24.4943 25.4323 24.4943 23.9619V10.1172C24.4943 8.64681 23.3023 7.4548 21.8319 7.4548H15.9746V1.59746C15.9746 1.30337 16.213 1.06497 16.5071 1.06497H30.3517C30.6458 1.06497 30.8842 1.30337 30.8842 1.59746V30.3517Z"/>
        <path d="M28.7542 2.66248H18.1045C17.5164 2.66248 17.0396 3.13928 17.0396 3.72745V4.79242C17.0396 5.38059 17.5164 5.85739 18.1045 5.85739H28.7542C29.3424 5.85739 29.8192 5.38059 29.8192 4.79242V3.72745C29.8192 3.13928 29.3424 2.66248 28.7542 2.66248ZM18.1045 4.79242V3.72745H28.7542V4.79242H18.1045Z"/>
        <path d="M27.6893 10.6497C28.5715 10.6497 29.2867 9.9345 29.2867 9.05225C29.2867 8.16999 28.5715 7.45479 27.6893 7.45479C26.807 7.45479 26.0918 8.16999 26.0918 9.05225C26.0918 9.9345 26.807 10.6497 27.6893 10.6497ZM27.6893 8.51976C27.9833 8.51976 28.2217 8.75816 28.2217 9.05225C28.2217 9.34633 27.9833 9.58473 27.6893 9.58473C27.3952 9.58473 27.1568 9.34633 27.1568 9.05225C27.1568 8.75816 27.3952 8.51976 27.6893 8.51976Z"/>
        <path d="M29.2867 13.3121C29.2867 12.4299 28.5715 11.7147 27.6893 11.7147C26.807 11.7147 26.0918 12.4299 26.0918 13.3121C26.0918 14.1944 26.807 14.9096 27.6893 14.9096C28.5715 14.9096 29.2867 14.1944 29.2867 13.3121ZM27.6893 13.8446C27.3952 13.8446 27.1568 13.6062 27.1568 13.3121C27.1568 13.0181 27.3952 12.7797 27.6893 12.7797C27.9833 12.7797 28.2217 13.0181 28.2217 13.3121C28.2217 13.6062 27.9833 13.8446 27.6893 13.8446Z"/>
        <path d="M20.7671 27.6893C20.473 27.6893 20.2346 27.9277 20.2346 28.2218V29.2867C20.2346 29.5808 20.473 29.8192 20.7671 29.8192C21.0612 29.8192 21.2996 29.5808 21.2996 29.2867V28.2218C21.2996 27.9277 21.0612 27.6893 20.7671 27.6893Z"/>
        <path d="M22.897 27.6893C22.6029 27.6893 22.3645 27.9277 22.3645 28.2218V29.2867C22.3645 29.5808 22.6029 29.8192 22.897 29.8192C23.1911 29.8192 23.4295 29.5808 23.4295 29.2867V28.2218C23.4295 27.9277 23.1911 27.6893 22.897 27.6893Z"/>
        <path d="M25.0269 27.6893C24.7328 27.6893 24.4944 27.9277 24.4944 28.2218V29.2867C24.4944 29.5808 24.7328 29.8192 25.0269 29.8192C25.321 29.8192 25.5594 29.5808 25.5594 29.2867V28.2218C25.5594 27.9277 25.321 27.6893 25.0269 27.6893Z"/>
        <path d="M27.1568 27.6893C26.8627 27.6893 26.6243 27.9277 26.6243 28.2218V29.2867C26.6243 29.5808 26.8627 29.8192 27.1568 29.8192C27.4508 29.8192 27.6892 29.5808 27.6892 29.2867V28.2218C27.6892 27.9277 27.4508 27.6893 27.1568 27.6893Z"/>
        <path d="M29.2866 27.6893C28.9926 27.6893 28.7542 27.9277 28.7542 28.2218V29.2867C28.7542 29.5808 28.9926 29.8192 29.2866 29.8192C29.5807 29.8192 29.8191 29.5808 29.8191 29.2867V28.2218C29.8191 27.9277 29.5807 27.6893 29.2866 27.6893Z"/>
    </symbol>
    <symbol id="game_icon3" viewBox="0 0 40 40">
        <g clip-path="url(#clip0_1_191)">
        <path d="M8.18528 14.0208H0V16.3447H8.18528C8.82597 16.3447 9.34722 16.8659 9.34722 17.5066C9.34722 18.1473 8.82597 18.6686 8.18528 18.6686H3.48583C1.56374 18.6686 0 20.2323 0 22.1544V25.6402H2.32389V22.1544C2.32389 21.5137 2.84514 20.9924 3.48583 20.9924H8.18528C10.1074 20.9924 11.6711 19.4287 11.6711 17.5066C11.6711 15.5845 10.1074 14.0208 8.18528 14.0208Z"/>
        <path d="M20.4114 14.0208C18.4893 14.0208 16.9255 15.5845 16.9255 17.5066V22.1544C16.9255 22.7951 16.4043 23.3163 15.7636 23.3163H10.509V25.6402H15.7636C17.6857 25.6402 19.2494 24.0765 19.2494 22.1544V17.5066C19.2494 16.8659 19.7707 16.3447 20.4114 16.3447H25.6659V14.0208H20.4114Z"/>
        <path d="M37.3371 20.9923V16.3447C37.3371 15.0633 36.2946 14.0208 35.0132 14.0208C34.573 14.0208 34.1443 14.1447 33.7731 14.3791L26.4142 19.0269C25.7355 19.4555 25.3303 20.1902 25.3303 20.9924C25.3303 22.2738 26.3728 23.3163 27.6542 23.3163H35.0132V25.6402H37.3371V23.3163H39.661V20.9924L37.3371 20.9923ZM35.0132 20.9922L27.6551 20.9917L35.0132 16.3447V20.9922Z"/>
        </g>
        <defs>
            <clipPath id="clip0_1_191">
                <rect width="39.661" height="39.661" fill="white"/>
            </clipPath>
        </defs>
    </symbol>
    <symbol id="game_icon4" viewBox="0 0 27 31">
        <path d="M16.1056 23.2784C14.4196 23.841 12.5599 23.8409 10.869 23.2781C10.3953 23.1204 9.88373 23.3767 9.72618 23.8502C9.56857 24.3238 9.82468 24.8355 10.2983 24.9931C11.328 25.3358 12.4089 25.5071 13.4895 25.5071C14.5701 25.5071 15.6505 25.3356 16.6778 24.9929C17.1512 24.8349 17.407 24.323 17.2489 23.8496C17.091 23.3762 16.5792 23.1205 16.1056 23.2784Z"/>
        <path d="M24.0153 5.90434C23.6307 3.14554 21.2618 0.96802 18.3277 0.96802H17.2954V0.903734C17.2954 0.404632 16.8908 0 16.3917 0H10.5837C10.0846 0 9.67996 0.404632 9.67996 0.903734V0.967959H8.64771C5.73823 0.967959 3.36605 3.11511 2.96262 5.90367C1.26854 6.28921 0 7.80658 0 9.61567V17.3597C0 19.8363 2.01732 20.8457 2.93364 21.0635C3.34743 26.6388 8.02896 30.8475 13.4877 30.8475C19.0545 30.8475 23.6311 26.5273 24.0413 21.0637C26.4166 20.4998 26.9754 18.3448 26.9754 17.3598V9.61573C26.9754 7.80754 25.7081 6.29077 24.0153 5.90434ZM17.2954 2.77543H18.3277C20.8848 2.77543 21.9411 4.86613 22.1607 5.808H17.2954V2.77543ZM11.4874 1.80747H15.488V5.808H11.4874V1.80747ZM8.64771 2.77543H9.67996V5.808H4.81841C5.40457 3.35249 7.62908 2.77543 8.64771 2.77543ZM13.4877 29.04C9.02716 29.04 5.21431 25.6609 4.75738 21.1674H9.21399C10.323 21.1674 11.4081 20.718 12.191 19.9345C12.1957 19.9299 12.2002 19.9252 12.2048 19.9204C12.5448 19.5878 13.0112 19.3975 13.4877 19.3975C13.9643 19.3975 14.4307 19.5879 14.7706 19.9205C14.7752 19.9252 14.7797 19.9299 14.7844 19.9345C15.5674 20.718 16.6524 21.1674 17.7615 21.1674H22.2177C21.7638 25.5837 18.0218 29.04 13.4877 29.04ZM25.168 17.3598C25.168 18.4782 24.2563 19.36 23.1677 19.36H17.7615C17.1354 19.36 16.5229 19.1093 16.0777 18.6714C16.0728 18.6663 16.0679 18.6613 16.0629 18.6562C15.3853 17.9786 14.4467 17.59 13.4878 17.59C12.5288 17.59 11.5903 17.9786 10.9127 18.6562C10.9077 18.6612 10.9027 18.6663 10.8978 18.6714C10.4525 19.1093 9.84004 19.36 9.21399 19.36H3.80767C2.72247 19.36 1.80741 18.482 1.80741 17.3598V9.61573C1.80741 8.51281 2.70476 7.61553 3.80767 7.61553H23.1676C24.2706 7.61553 25.1679 8.51287 25.1679 9.61573V17.3598H25.168Z"/>
    </symbol>
    <symbol id="game_icon5" viewBox="0 0 34 30">
        <path d="M29.1949 0H3.85593C1.72737 0.00242849 0.00242849 1.72737 0 3.85593V25.8898C0.00242849 28.0184 1.72737 29.7433 3.85593 29.7458H29.1949C31.3235 29.7433 33.0484 28.0184 33.0508 25.8898V3.85593C33.0484 1.72737 31.3235 0.00242849 29.1949 0ZM31.9492 25.8898C31.9473 27.4102 30.7153 28.6422 29.1949 28.6441H3.85593C2.33556 28.6422 1.10352 27.4102 1.10169 25.8898V3.85593C1.10352 2.33556 2.33556 1.10352 3.85593 1.10169H29.1949C30.7153 1.10352 31.9473 2.33556 31.9492 3.85593V25.8898Z"/>
        <path d="M29.1949 4.40677H3.85591C2.94324 4.40677 2.20337 5.14664 2.20337 6.05931V25.8898C2.20337 26.8025 2.94324 27.5424 3.85591 27.5424H29.1949C30.1076 27.5424 30.8474 26.8025 30.8474 25.8898V6.05931C30.8474 5.14664 30.1076 4.40677 29.1949 4.40677ZM16.5254 15.3488L10.5261 12.1186L16.5254 8.88846L22.5247 12.1186L16.5254 15.3488ZM23.1356 13.0408V19.5L17.0763 22.7643V16.3051L23.1356 13.0408ZM15.9746 16.3051V22.7643L9.91523 19.5V13.0408L15.9746 16.3051ZM3.30506 6.05931C3.30506 5.75509 3.55169 5.50846 3.85591 5.50846H15.9746V7.93219L9.10328 11.6339C9.09612 11.6377 9.08786 11.6394 9.0807 11.6438C8.91413 11.7439 8.81261 11.9243 8.81354 12.1186V16.7358L3.30506 19.4901V6.05931ZM29.7457 25.8898C29.7457 26.194 29.4991 26.4407 29.1949 26.4407H3.85591C3.55169 26.4407 3.30506 26.194 3.30506 25.8898V20.7218L8.81354 17.9675V19.8305C8.81364 20.0331 8.92492 20.2192 9.10328 20.3152L16.2643 24.1712C16.4273 24.2589 16.6235 24.2589 16.7865 24.1712L23.9475 20.3152C24.1259 20.2192 24.2372 20.0331 24.2373 19.8305V17.9675L29.7457 20.7218V25.8898ZM29.7457 19.4901L24.2373 16.7358V12.1186C24.2372 11.9249 24.1353 11.7454 23.969 11.646C23.9618 11.6416 23.9536 11.6399 23.9464 11.6361L17.0763 7.93219V5.50846H29.1949C29.4991 5.50846 29.7457 5.75509 29.7457 6.05931V19.4901Z"/>
        <path d="M3.305 3.30513C3.60922 3.30513 3.85585 3.0585 3.85585 2.75428C3.85585 2.45005 3.60922 2.20343 3.305 2.20343C3.00077 2.20343 2.75415 2.45005 2.75415 2.75428C2.75415 3.0585 3.00077 3.30513 3.305 3.30513Z"/>
        <path d="M5.50837 3.30513C5.81259 3.30513 6.05921 3.0585 6.05921 2.75428C6.05921 2.45005 5.81259 2.20343 5.50837 2.20343C5.20414 2.20343 4.95752 2.45005 4.95752 2.75428C4.95752 3.0585 5.20414 3.30513 5.50837 3.30513Z"/>
        <path d="M7.71173 3.30513C8.01596 3.30513 8.26258 3.0585 8.26258 2.75428C8.26258 2.45005 8.01596 2.20343 7.71173 2.20343C7.40751 2.20343 7.16089 2.45005 7.16089 2.75428C7.16089 3.0585 7.40751 3.30513 7.71173 3.30513Z"/>
        <path d="M21.483 3.30513H29.1948C29.4991 3.30513 29.7457 3.0585 29.7457 2.75428C29.7457 2.45005 29.4991 2.20343 29.1948 2.20343H21.483C21.1788 2.20343 20.9321 2.45005 20.9321 2.75428C20.9321 3.0585 21.1788 3.30513 21.483 3.30513Z"/>
    </symbol>
    <symbol id="game_icon6" viewBox="0 0 31 29">
        <path d="M30.8268 25.8849L30.1652 23.4158C30.0791 23.0943 29.7486 22.9033 29.4273 22.9897C29.1059 23.0759 28.9151 23.4062 29.0013 23.7276L29.2909 24.8086L25.0631 22.3969V12.3737C25.0631 12.1581 24.9478 11.9588 24.7609 11.8514L16.0253 6.829V2.0563L16.8043 2.8353C17.0396 3.07059 17.4211 3.07059 17.6564 2.8353C17.8917 2.60002 17.8917 2.2185 17.6564 1.98315L15.8489 0.175587C15.6133 -0.0609029 15.2276 -0.056143 14.9967 0.175587L13.1891 1.98315C12.9539 2.21844 12.9539 2.59996 13.1891 2.8353C13.4244 3.07053 13.8059 3.07053 14.0413 2.8353L14.8203 2.0563V6.83009L6.1433 11.8522C5.95718 11.96 5.84259 12.1587 5.84259 12.3737V22.2995L1.55534 24.7358L1.84545 23.6529C1.93155 23.3314 1.74079 23.0011 1.41935 22.915C1.09784 22.8287 0.767538 23.0196 0.681438 23.341L0.0198684 25.8107C-0.0638823 26.1235 0.123382 26.4715 0.463988 26.5534L2.91511 27.2102C3.23915 27.297 3.56764 27.103 3.65308 26.7842C3.73924 26.4628 3.54848 26.1324 3.22704 26.0463L2.18148 25.7661L6.43655 23.3482L15.1551 28.4821C15.3417 28.592 15.5734 28.5934 15.7617 28.4849L17.9719 27.2107C18.2602 27.0445 18.3591 26.6761 18.193 26.3878C18.0268 26.0996 17.6584 26.0006 17.37 26.1668L15.464 27.2656L7.64521 22.6614L15.3849 18.2634L23.2736 22.7634L22.0667 23.4592C21.7784 23.6254 21.6795 23.9938 21.8456 24.2821C22.0119 24.5705 22.3804 24.6694 22.6686 24.5032L24.4864 23.4552L28.6669 25.8399L27.6199 26.1204C27.2984 26.2065 27.1077 26.5369 27.1938 26.8584C27.2795 27.1782 27.6088 27.371 27.9317 27.2844L30.3465 26.6374C30.6913 26.5766 30.9193 26.23 30.8268 25.8849ZM23.858 21.7094L16.0252 17.2413V8.21902L23.858 12.7223V21.7094ZM7.04763 12.7212L14.8202 8.22251V17.198L7.04763 21.6148V12.7212Z"/>
        <path d="M20.0019 25.9076C20.3347 25.9076 20.6045 25.6378 20.6045 25.3051C20.6045 24.9723 20.3347 24.7025 20.0019 24.7025C19.6692 24.7025 19.3994 24.9723 19.3994 25.3051C19.3994 25.6378 19.6692 25.9076 20.0019 25.9076Z"/>
    </symbol>

   <symbol id="arrow_left" viewBox="0 0 12 10">
        <path d="M11.2787 5.9879C11.2296 5.99587 11.1799 5.99954 11.1302 5.9989L2.66446 5.9989L2.84906 6.08476C3.0295 6.17016 3.19365 6.28639 3.33417 6.42819L5.70818 8.80221C6.02084 9.10068 6.07338 9.58082 5.83267 9.93984C5.55253 10.3224 5.01529 10.4055 4.63268 10.1254C4.60177 10.1027 4.57239 10.078 4.54478 10.0515L0.251816 5.75849C-0.0836792 5.42337 -0.0839744 4.87975 0.251145 4.54425C0.25136 4.54404 0.251602 4.5438 0.251816 4.54358L4.54478 0.250614C4.88055 -0.0842104 5.42417 -0.0834599 5.75902 0.252304C5.78537 0.278732 5.80998 0.306851 5.83267 0.336473C6.07338 0.695499 6.02084 1.17564 5.70818 1.47411L3.33846 3.85241C3.21249 3.97852 3.06765 4.08426 2.90916 4.1658L2.65159 4.28171L11.083 4.28171C11.5216 4.26542 11.9064 4.57181 11.9888 5.00293C12.0647 5.471 11.7468 5.91197 11.2787 5.9879Z"/>
    </symbol>
    <symbol id="arrow_right" viewBox="0 0 12 10">
        <path d="M0.721267 5.9879C0.770368 5.99587 0.820059 5.99954 0.869777 5.9989L9.33554 5.9989L9.15094 6.08476C8.9705 6.17016 8.80635 6.28639 8.66583 6.42819L6.29182 8.80221C5.97916 9.10068 5.92662 9.58082 6.16733 9.93984C6.44747 10.3224 6.98471 10.4055 7.36732 10.1254C7.39823 10.1027 7.42761 10.078 7.45522 10.0515L11.7482 5.75849C12.0837 5.42337 12.084 4.87975 11.7489 4.54425C11.7486 4.54404 11.7484 4.5438 11.7482 4.54358L7.45522 0.250614C7.11945 -0.0842104 6.57583 -0.0834599 6.24098 0.252304C6.21463 0.278732 6.19002 0.306851 6.16733 0.336473C5.92662 0.695499 5.97916 1.17564 6.29182 1.47411L8.66154 3.85241C8.78751 3.97852 8.93235 4.08426 9.09084 4.1658L9.34841 4.28171L0.917026 4.28171C0.478418 4.26542 0.0936079 4.57181 0.0112095 5.00293C-0.0646954 5.471 0.2532 5.91197 0.721267 5.9879Z"/>
    </symbol>
    <symbol id="facebook" viewBox="0 0 6 12">
        <path d="M4.905 1.9925H6.0005V0.0845C5.8115 0.0585 5.1615 0 4.4045 0C2.825 0 1.743 0.9935 1.743 2.8195V4.5H0V6.633H1.743V12H3.88V6.6335H5.5525L5.818 4.5005H3.8795V3.031C3.88 2.4145 4.046 1.9925 4.905 1.9925Z"/>
    </symbol>
    <symbol id="instagram" viewBox="0 0 13 13">
        <path d="M9.481 0H3.51898C1.57858 0 0 1.57858 0 3.51898V9.4811C0 11.4214 1.57858 13 3.51898 13H9.4811C11.4214 13 13 11.4214 13 9.4811V3.51898C13 1.57858 11.4214 0 9.481 0V0ZM12.2379 9.4811C12.2379 11.0012 11.0012 12.2379 9.481 12.2379H3.51898C1.99881 12.2379 0.762114 11.0012 0.762114 9.4811V3.51898C0.762114 1.99881 1.99881 0.762114 3.51898 0.762114H9.4811C11.0012 0.762114 12.2379 1.99881 12.2379 3.51898V9.4811Z"/>
        <path d="M6.49989 2.94531C4.53986 2.94531 2.94531 4.53986 2.94531 6.49989C2.94531 8.45993 4.53986 10.0545 6.49989 10.0545C8.45993 10.0545 10.0545 8.45993 10.0545 6.49989C10.0545 4.53986 8.45993 2.94531 6.49989 2.94531ZM6.49989 9.29236C4.96019 9.29236 3.70743 8.03969 3.70743 6.49989C3.70743 4.96019 4.96019 3.70743 6.49989 3.70743C8.03969 3.70743 9.29236 4.96019 9.29236 6.49989C9.29236 8.03969 8.03969 9.29236 6.49989 9.29236Z"/>
        <path d="M10.1394 1.68311C9.56023 1.68311 9.08911 2.15432 9.08911 2.73344C9.08911 3.31266 9.56023 3.78388 10.1394 3.78388C10.7187 3.78388 11.1899 3.31266 11.1899 2.73344C11.1899 2.15422 10.7187 1.68311 10.1394 1.68311ZM10.1394 3.02166C9.98056 3.02166 9.85122 2.89233 9.85122 2.73344C9.85122 2.57445 9.98056 2.44522 10.1394 2.44522C10.2984 2.44522 10.4278 2.57445 10.4278 2.73344C10.4278 2.89233 10.2984 3.02166 10.1394 3.02166Z"/>
    </symbol>
    <symbol id="twitter" viewBox="0 0 13 11">
        <path d="M13 1.25044C12.5166 1.4625 12.0014 1.60306 11.4644 1.67131C12.0169 1.34144 12.4386 0.823062 12.6368 0.19825C12.1217 0.505375 11.5529 0.722313 10.9468 0.843375C10.4577 0.322563 9.76056 0 9.00006 0C7.52456 0 6.33669 1.19763 6.33669 2.66581C6.33669 2.87706 6.35456 3.08019 6.39844 3.27356C4.18275 3.1655 2.22219 2.10356 0.905125 0.485875C0.675187 0.884813 0.540313 1.34144 0.540313 1.833C0.540313 2.756 1.01562 3.57419 1.72413 4.04787C1.29594 4.03975 0.875875 3.91544 0.52 3.71962C0.52 3.72775 0.52 3.73831 0.52 3.74887C0.52 5.044 1.44381 6.11975 2.65525 6.36756C2.43831 6.42688 2.20187 6.45531 1.9565 6.45531C1.78587 6.45531 1.61362 6.44556 1.45194 6.40981C1.79725 7.46525 2.77713 8.24119 3.94225 8.26637C3.0355 8.97569 1.88419 9.40306 0.637812 9.40306C0.41925 9.40306 0.209625 9.39331 0 9.3665C1.18056 10.1278 2.57969 10.5625 4.0885 10.5625C8.99275 10.5625 11.674 6.5 11.674 2.97862C11.674 2.86081 11.6699 2.74706 11.6643 2.63412C12.1932 2.25875 12.6376 1.78994 13 1.25044Z"/>
    </symbol>
        <symbol id="linkedin" viewBox="0 0 11 11">
        <path d="M10.9973 11V10.9996H11.0001V6.96531C11.0001 4.99173 10.5752 3.47144 8.26795 3.47144C7.15879 3.47144 6.41445 4.0801 6.11058 4.65714H6.07849V3.65569H3.89087V10.9996H6.16879V7.36314C6.16879 6.40569 6.35029 5.47985 7.536 5.47985C8.70429 5.47985 8.7217 6.57252 8.7217 7.42456V11H10.9973Z"/>
        <path d="M0.181396 3.65601H2.46206V10.9999H0.181396V3.65601Z"/>
        <path d="M1.32092 0C0.591708 0 0 0.591708 0 1.32092C0 2.05013 0.591708 2.65421 1.32092 2.65421C2.05013 2.65421 2.64183 2.05013 2.64183 1.32092C2.64138 0.591708 2.04967 0 1.32092 0V0Z"/>
    </symbol>
    
    <symbol id="icon_clients" viewBox="0 0 16 18">
        <path fill-rule="evenodd" clip-rule="evenodd" d="M7.93223 7.2C8.88701 7.2 9.80268 6.82071 10.4778 6.14558C11.1529 5.47045 11.5322 4.55478 11.5322 3.6C11.5322 2.64522 11.1529 1.72955 10.4778 1.05442C9.80268 0.379285 8.88701 0 7.93223 0C6.97745 0 6.06177 0.379285 5.38664 1.05442C4.71151 1.72955 4.33223 2.64522 4.33223 3.6C4.33223 4.55478 4.71151 5.47045 5.38664 6.14558C6.06177 6.82071 6.97745 7.2 7.93223 7.2ZM2.83088 18C1.00909 18 -0.525532 16.4686 0.171639 14.7855C0.593778 13.7663 1.21252 12.8403 1.99253 12.0603C2.77254 11.2803 3.69855 10.6616 4.71769 10.2394C5.73682 9.81727 6.82912 9.6 7.93223 9.6C9.03533 9.6 10.1276 9.81727 11.1468 10.2394C12.1659 10.6616 13.0919 11.2803 13.8719 12.0603C14.6519 12.8403 15.2707 13.7663 15.6928 14.7855C16.39 16.4686 14.8554 18 13.0336 18H2.83088Z"/>
    </symbol>
    <symbol id="icon_countries" viewBox="0 0 14 20">
        <path d="M14 7C14 6.08075 13.8189 5.1705 13.4672 4.32122C13.1154 3.47194 12.5998 2.70026 11.9497 2.05025C11.2997 1.40024 10.5281 0.884626 9.67878 0.532843C8.8295 0.18106 7.91925 0 7 0C6.08075 0 5.17049 0.18106 4.32122 0.532843C3.47194 0.884626 2.70026 1.40024 2.05025 2.05025C1.40024 2.70026 0.884626 3.47194 0.532843 4.32122C0.18106 5.1705 -1.36979e-08 6.08075 0 7C0 8.387 0.41 9.677 1.105 10.765H1.097C3.457 14.46 7 20 7 20L12.903 10.765H12.896C13.6164 9.64137 13.9995 8.33474 14 7ZM7 10C6.20435 10 5.44129 9.68393 4.87868 9.12132C4.31607 8.55871 4 7.79565 4 7C4 6.20435 4.31607 5.44129 4.87868 4.87868C5.44129 4.31607 6.20435 4 7 4C7.79565 4 8.55871 4.31607 9.12132 4.87868C9.68393 5.44129 10 6.20435 10 7C10 7.79565 9.68393 8.55871 9.12132 9.12132C8.55871 9.68393 7.79565 10 7 10Z"/>
    </symbol>
    <symbol id="icon_projects" viewBox="0 0 24 24">
        <path d="M20 3H4C3.46957 3 2.96086 3.21071 2.58579 3.58579C2.21071 3.96086 2 4.46957 2 5V9C2 9.53043 2.21071 10.0391 2.58579 10.4142C2.96086 10.7893 3.46957 11 4 11H20C20.5304 11 21.0391 10.7893 21.4142 10.4142C21.7893 10.0391 22 9.53043 22 9V5C22 4.46957 21.7893 3.96086 21.4142 3.58579C21.0391 3.21071 20.5304 3 20 3ZM15 7C15 7.55228 14.5523 8 14 8C13.4477 8 13 7.55228 13 7C13 6.44772 13.4477 6 14 6C14.5523 6 15 6.44772 15 7ZM19 7C19 7.55228 18.5523 8 18 8C17.4477 8 17 7.55228 17 7C17 6.44772 17.4477 6 18 6C18.5523 6 19 6.44772 19 7ZM20 13H4C3.46957 13 2.96086 13.2107 2.58579 13.5858C2.21071 13.9609 2 14.4696 2 15V19C2 19.5304 2.21071 20.0391 2.58579 20.4142C2.96086 20.7893 3.46957 21 4 21H20C20.5304 21 21.0391 20.7893 21.4142 20.4142C21.7893 20.0391 22 19.5304 22 19V15C22 14.4696 21.7893 13.9609 21.4142 13.5858C21.0391 13.2107 20.5304 13 20 13ZM15 17C15 17.5523 14.5523 18 14 18C13.4477 18 13 17.5523 13 17C13 16.4477 13.4477 16 14 16C14.5523 16 15 16.4477 15 17ZM19 17C19 17.5523 18.5523 18 18 18C17.4477 18 17 17.5523 17 17C17 16.4477 17.4477 16 18 16C18.5523 16 19 16.4477 19 17Z"/>
    </symbol>
    <symbol id="icon_play" viewBox="0 0 64 61" fill="none">
        <path d="M31.7333 58.0889C48.1546 58.0889 61.4667 45.533 61.4667 30.0444C61.4667 14.5559 48.1546 2 31.7333 2C15.3121 2 2 14.5559 2 30.0444C2 45.533 15.3121 58.0889 31.7333 58.0889Z"/>
        <path d="M25.7865 18.8267L43.6265 30.0444L25.7865 41.2622V18.8267Z"/>
    </symbol>
    <symbol id="icon_check_mark" viewBox="0 0 20 20">
    <path d="M10 0C4.486 0 0 4.486 0 10C0 15.514 4.486 20 10 20C15.514 20 20 15.514 20 10C20 4.486 15.514 0 10 0ZM8.001 14.413L4.99545 11.4139C4.6047 11.024 4.60391 10.3912 4.99369 10.0003C5.38371 9.60918 6.01701 9.60846 6.40793 9.9987L7.999 11.587L12.586 7C12.9765 6.60953 13.6095 6.60953 14 7C14.3905 7.39047 14.3905 8.02353 14 8.414L8.001 14.413Z"/>
    </symbol>
    <symbol id="icon_star" viewBox="0 0 14 13">
        <path d="M12.8059 4.45001L8.83873 3.87344L7.06529 0.278131C7.01685 0.179693 6.93716 0.100006 6.83873 0.0515683C6.59185 -0.0703067 6.29185 0.0312558 6.16841 0.278131L4.39498 3.87344L0.427788 4.45001C0.318413 4.46563 0.218413 4.51719 0.141851 4.59532C0.0492908 4.69045 -0.00171392 4.81844 4.3978e-05 4.95117C0.00180188 5.08389 0.0561785 5.21048 0.151226 5.30313L3.02154 8.10157L2.34341 12.0531C2.32751 12.1451 2.33768 12.2396 2.37278 12.326C2.40787 12.4125 2.46648 12.4873 2.54196 12.5422C2.61744 12.597 2.70677 12.6296 2.79982 12.6362C2.89287 12.6428 2.98592 12.6233 3.06841 12.5797L6.61685 10.7141L10.1653 12.5797C10.2622 12.6313 10.3747 12.6484 10.4825 12.6297C10.7544 12.5828 10.9372 12.325 10.8903 12.0531L10.2122 8.10157L13.0825 5.30313C13.1606 5.22657 13.2122 5.12657 13.2278 5.01719C13.27 4.74376 13.0794 4.49063 12.8059 4.45001Z"/>
    </symbol>
    <symbol id="icon_search" viewBox="0 0 15 15">
        <path d="M14.9084 14.0247L10.5511 9.66728C11.3775 8.64696 11.875 7.34981 11.875 5.93752C11.875 2.66359 9.21142 0 5.93749 0C2.66356 0 0 2.66359 0 5.93752C0 9.21145 2.66359 11.875 5.93752 11.875C7.34981 11.875 8.64696 11.3775 9.66729 10.5511L14.0247 14.9085C14.1468 15.0305 14.3446 15.0305 14.4667 14.9085L14.9085 14.4666C15.0305 14.3446 15.0305 14.1467 14.9084 14.0247ZM5.93752 10.625C3.35268 10.625 1.25001 8.52236 1.25001 5.93752C1.25001 3.35268 3.35268 1.25001 5.93752 1.25001C8.52236 1.25001 10.625 3.35268 10.625 5.93752C10.625 8.52236 8.52236 10.625 5.93752 10.625Z"/>
    </symbol>
    <symbol id="icon_number" viewBox="0 0 30 30">
        <path d="M10.0757 12.3489C11.1038 11.3208 11.1038 9.64807 10.0757 8.61999L6.46006 5.00434C5.90699 4.45122 5.14029 4.17096 4.3573 4.23542C3.58926 4.29864 2.89457 4.69016 2.45143 5.3095C2.35943 5.43805 2.27061 5.56848 2.18359 5.69997L9.45408 12.9705L10.0757 12.3489Z"/>
        <path d="M24.9955 23.5394L21.3798 19.9237C20.3519 18.8958 18.679 18.8956 17.6509 19.9237L17.0293 20.5454L24.3001 27.8161C24.4316 27.7291 24.5618 27.6399 24.6903 27.548C25.3096 27.1049 25.7011 26.4102 25.7644 25.6421C25.8289 24.859 25.5486 24.0926 24.9955 23.5394Z"/>
        <path d="M14.5435 21.939C13.8391 21.939 13.1771 21.6648 12.679 21.1668L8.83292 17.3207C8.33494 16.8227 8.0606 16.1605 8.0606 15.4562C8.0606 15.0561 8.14937 14.6698 8.31707 14.3193L1.2857 7.28784C0.296635 9.36458 -0.14106 11.6913 0.0395256 14.0267C0.282865 17.1738 1.64001 20.1301 3.86107 22.3511L7.64869 26.1386C9.86962 28.3596 12.826 29.7168 15.973 29.9602C16.3169 29.9868 16.6605 30 17.0033 30C18.9882 30 20.9409 29.5575 22.7118 28.7141L15.6804 21.6826C15.3299 21.8503 14.9435 21.939 14.5435 21.939Z"/>
        <path d="M17.6951 0C17.2097 0 16.8162 0.393516 16.8162 0.878906C16.8162 1.3643 17.2097 1.75781 17.6951 1.75781C23.5106 1.75781 28.2419 6.48914 28.2419 12.3047C28.2419 12.7901 28.6355 13.1836 29.1208 13.1836C29.6062 13.1836 29.9998 12.7901 29.9998 12.3047C29.9998 5.51988 24.4799 0 17.6951 0Z"/>
        <path d="M17.695 12.3039C17.695 12.3039 17.6951 12.3042 17.6951 12.3047C17.6951 12.7901 18.0886 13.1836 18.574 13.1836C19.0594 13.1836 19.4529 12.7901 19.4529 12.3047C19.4529 11.3354 18.6643 10.5469 17.6951 10.5469C17.2097 10.5469 16.8162 10.94 16.8162 11.4254C16.8162 11.9108 17.2096 12.3039 17.695 12.3039Z"/>
        <path d="M17.6951 8.78906C19.6336 8.78906 21.2107 10.3662 21.2107 12.3047C21.2107 12.7901 21.6042 13.1836 22.0896 13.1836C22.575 13.1836 22.9685 12.7901 22.9685 12.3047C22.9685 9.39691 20.6028 7.03125 17.6951 7.03125C17.2097 7.03125 16.8162 7.42477 16.8162 7.91016C16.8162 8.39555 17.2097 8.78906 17.6951 8.78906Z"/>
        <path d="M17.6951 3.51562C17.2097 3.51562 16.8162 3.90914 16.8162 4.39453C16.8162 4.87992 17.2097 5.27344 17.6951 5.27344C21.5721 5.27344 24.7263 8.42766 24.7263 12.3047C24.7263 12.7901 25.1198 13.1836 25.6052 13.1836C26.0906 13.1836 26.4841 12.7901 26.4841 12.3047C26.4841 7.4584 22.5414 3.51562 17.6951 3.51562Z"/>
    </symbol>
</svg>
