<svg width="21" height="18" viewBox="0 0 21 18" fill="none" xmlns="http://www.w3.org/2000/svg">
<path d="M1.26222 10.4789C1.34814 10.4928 1.4351 10.4992 1.52211 10.4981L16.3372 10.4981L16.0141 10.6484C15.6984 10.7978 15.4111 11.0012 15.1652 11.2494L11.0107 15.4039C10.4635 15.9262 10.3716 16.7665 10.7928 17.3948C11.2831 18.0643 12.2232 18.2096 12.8928 17.7194C12.9469 17.6798 12.9983 17.6366 13.0466 17.5901L20.5593 10.0774C21.1464 9.49093 21.147 8.53959 20.5605 7.95247C20.5601 7.9521 20.5597 7.95168 20.5593 7.9513L13.0466 0.438606C12.459 -0.147337 11.5077 -0.146023 10.9217 0.441565C10.8756 0.487814 10.8325 0.537022 10.7928 0.58886C10.3716 1.21716 10.4635 2.0574 11.0107 2.57972L15.1577 6.74176C15.3781 6.96244 15.6316 7.14749 15.909 7.29018L16.3597 7.49303L1.6048 7.49303C0.837233 7.46452 0.163813 8.0007 0.0196152 8.75516C-0.113218 9.57428 0.443098 10.346 1.26222 10.4789Z" fill="#DC7000"/>
</svg>
