<svg width="27" height="31" viewBox="0 0 27 31" fill="none" xmlns="http://www.w3.org/2000/svg">
<path d="M16.1056 23.2784C14.4196 23.841 12.5599 23.8409 10.869 23.2781C10.3953 23.1204 9.88373 23.3767 9.72618 23.8502C9.56857 24.3238 9.82468 24.8355 10.2983 24.9931C11.328 25.3358 12.4089 25.5071 13.4895 25.5071C14.5701 25.5071 15.6505 25.3356 16.6778 24.9929C17.1512 24.8349 17.407 24.323 17.2489 23.8496C17.091 23.3762 16.5792 23.1205 16.1056 23.2784Z" fill="#DC7000"/>
<path d="M24.0153 5.90434C23.6307 3.14554 21.2618 0.96802 18.3277 0.96802H17.2954V0.903734C17.2954 0.404632 16.8908 0 16.3917 0H10.5837C10.0846 0 9.67996 0.404632 9.67996 0.903734V0.967959H8.64771C5.73823 0.967959 3.36605 3.11511 2.96262 5.90367C1.26854 6.28921 0 7.80658 0 9.61567V17.3597C0 19.8363 2.01732 20.8457 2.93364 21.0635C3.34743 26.6388 8.02896 30.8475 13.4877 30.8475C19.0545 30.8475 23.6311 26.5273 24.0413 21.0637C26.4166 20.4998 26.9754 18.3448 26.9754 17.3598V9.61573C26.9754 7.80754 25.7081 6.29077 24.0153 5.90434ZM17.2954 2.77543H18.3277C20.8848 2.77543 21.9411 4.86613 22.1607 5.808H17.2954V2.77543ZM11.4874 1.80747H15.488V5.808H11.4874V1.80747ZM8.64771 2.77543H9.67996V5.808H4.81841C5.40457 3.35249 7.62908 2.77543 8.64771 2.77543ZM13.4877 29.04C9.02716 29.04 5.21431 25.6609 4.75738 21.1674H9.21399C10.323 21.1674 11.4081 20.718 12.191 19.9345C12.1957 19.9299 12.2002 19.9252 12.2048 19.9204C12.5448 19.5878 13.0112 19.3975 13.4877 19.3975C13.9643 19.3975 14.4307 19.5879 14.7706 19.9205C14.7752 19.9252 14.7797 19.9299 14.7844 19.9345C15.5674 20.718 16.6524 21.1674 17.7615 21.1674H22.2177C21.7638 25.5837 18.0218 29.04 13.4877 29.04ZM25.168 17.3598C25.168 18.4782 24.2563 19.36 23.1677 19.36H17.7615C17.1354 19.36 16.5229 19.1093 16.0777 18.6714C16.0728 18.6663 16.0679 18.6613 16.0629 18.6562C15.3853 17.9786 14.4467 17.59 13.4878 17.59C12.5288 17.59 11.5903 17.9786 10.9127 18.6562C10.9077 18.6612 10.9027 18.6663 10.8978 18.6714C10.4525 19.1093 9.84004 19.36 9.21399 19.36H3.80767C2.72247 19.36 1.80741 18.482 1.80741 17.3598V9.61573C1.80741 8.51281 2.70476 7.61553 3.80767 7.61553H23.1676C24.2706 7.61553 25.1679 8.51287 25.1679 9.61573V17.3598H25.168Z" fill="#DC7000"/>
</svg>
