<svg width="31" height="29" viewBox="0 0 31 29" fill="none" xmlns="http://www.w3.org/2000/svg">
<path d="M30.8268 25.8849L30.1652 23.4158C30.0791 23.0943 29.7486 22.9033 29.4273 22.9897C29.1059 23.0759 28.9151 23.4062 29.0013 23.7276L29.2909 24.8086L25.0631 22.3969V12.3737C25.0631 12.1581 24.9478 11.9588 24.7609 11.8514L16.0253 6.829V2.0563L16.8043 2.8353C17.0396 3.07059 17.4211 3.07059 17.6564 2.8353C17.8917 2.60002 17.8917 2.2185 17.6564 1.98315L15.8489 0.175587C15.6133 -0.0609029 15.2276 -0.056143 14.9967 0.175587L13.1891 1.98315C12.9539 2.21844 12.9539 2.59996 13.1891 2.8353C13.4244 3.07053 13.8059 3.07053 14.0413 2.8353L14.8203 2.0563V6.83009L6.1433 11.8522C5.95718 11.96 5.84259 12.1587 5.84259 12.3737V22.2995L1.55534 24.7358L1.84545 23.6529C1.93155 23.3314 1.74079 23.0011 1.41935 22.915C1.09784 22.8287 0.767538 23.0196 0.681438 23.341L0.0198684 25.8107C-0.0638823 26.1235 0.123382 26.4715 0.463988 26.5534L2.91511 27.2102C3.23915 27.297 3.56764 27.103 3.65308 26.7842C3.73924 26.4628 3.54848 26.1324 3.22704 26.0463L2.18148 25.7661L6.43655 23.3482L15.1551 28.4821C15.3417 28.592 15.5734 28.5934 15.7617 28.4849L17.9719 27.2107C18.2602 27.0445 18.3591 26.6761 18.193 26.3878C18.0268 26.0996 17.6584 26.0006 17.37 26.1668L15.464 27.2656L7.64521 22.6614L15.3849 18.2634L23.2736 22.7634L22.0667 23.4592C21.7784 23.6254 21.6795 23.9938 21.8456 24.2821C22.0119 24.5705 22.3804 24.6694 22.6686 24.5032L24.4864 23.4552L28.6669 25.8399L27.6199 26.1204C27.2984 26.2065 27.1077 26.5369 27.1938 26.8584C27.2795 27.1782 27.6088 27.371 27.9317 27.2844L30.3465 26.6374C30.6913 26.5766 30.9193 26.23 30.8268 25.8849ZM23.858 21.7094L16.0252 17.2413V8.21902L23.858 12.7223V21.7094ZM7.04763 12.7212L14.8202 8.22251V17.198L7.04763 21.6148V12.7212Z" fill="#DC7000"/>
<path d="M20.0019 25.9076C20.3347 25.9076 20.6045 25.6378 20.6045 25.3051C20.6045 24.9723 20.3347 24.7025 20.0019 24.7025C19.6692 24.7025 19.3994 24.9723 19.3994 25.3051C19.3994 25.6378 19.6692 25.9076 20.0019 25.9076Z" fill="#DC7000"/>
</svg>
