<svg width="30" height="30" viewBox="0 0 30 30" fill="none" xmlns="http://www.w3.org/2000/svg">
<path d="M21.1164 0H8.62817C7.42446 0 6.44434 0.980123 6.44434 2.18383V27.5614C6.44434 28.7656 7.42446 29.7458 8.62817 29.7458H21.1159C22.3201 29.7458 23.3003 28.7656 23.3003 27.5619V2.18383C23.3003 0.980123 22.3201 0 21.1164 0ZM7.43586 3.9661H22.3087V22.8051H7.43586V3.9661ZM8.62817 0.991525H21.1159C21.7738 0.991525 22.3087 1.52645 22.3087 2.18383V2.97458H7.43586V2.18383C7.43586 1.52645 7.97079 0.991525 8.62817 0.991525ZM21.1164 28.7542H8.62817C7.97079 28.7542 7.43586 28.2193 7.43586 27.5619V23.7966H22.3087V27.5619C22.3087 28.2193 21.7738 28.7542 21.1164 28.7542Z" fill="#DC7000"/>
<path d="M14.8725 24.2924C13.7788 24.2924 12.8894 25.1818 12.8894 26.2754C12.8894 27.3691 13.7788 28.2585 14.8725 28.2585C15.9661 28.2585 16.8555 27.3691 16.8555 26.2754C16.8555 25.1818 15.9661 24.2924 14.8725 24.2924ZM14.8725 27.267C14.3256 27.267 13.8809 26.8223 13.8809 26.2754C13.8809 25.7286 14.3256 25.2839 14.8725 25.2839C15.4193 25.2839 15.864 25.7286 15.864 26.2754C15.864 26.8223 15.4193 27.267 14.8725 27.267Z" fill="#DC7000"/>
<path d="M12.8893 2.47881H14.8724C15.1465 2.47881 15.3681 2.25721 15.3681 1.98305C15.3681 1.7089 15.1465 1.48729 14.8724 1.48729H12.8893C12.6152 1.48729 12.3936 1.7089 12.3936 1.98305C12.3936 2.25721 12.6152 2.47881 12.8893 2.47881Z" fill="#DC7000"/>
<path d="M16.3598 2.47881H16.8555C17.1297 2.47881 17.3513 2.25721 17.3513 1.98305C17.3513 1.7089 17.1297 1.48729 16.8555 1.48729H16.3598C16.0856 1.48729 15.864 1.7089 15.864 1.98305C15.864 2.25721 16.0856 2.47881 16.3598 2.47881Z" fill="#DC7000"/>
<path d="M28.0656 2.26513C27.8718 2.07129 27.5585 2.07129 27.3646 2.26513C27.1708 2.45898 27.1708 2.7723 27.3646 2.96614C29.2168 4.81831 29.2168 7.83205 27.3646 9.68472C27.1708 9.87856 27.1708 10.1919 27.3646 10.3857C27.4613 10.4824 27.5882 10.531 27.7151 10.531C27.842 10.531 27.969 10.4824 28.0656 10.3857C30.3045 8.14736 30.3045 4.504 28.0656 2.26513Z" fill="#DC7000"/>
<path d="M25.978 3.39349C25.7841 3.19965 25.4708 3.19965 25.277 3.39349C25.0831 3.58733 25.0831 3.90066 25.277 4.0945C25.8902 4.70776 26.2278 5.52477 26.2278 6.39434C26.2278 7.26391 25.8902 8.08043 25.277 8.69369C25.0831 8.88753 25.0831 9.20085 25.277 9.3947C25.3736 9.49137 25.5006 9.53996 25.6275 9.53996C25.7544 9.53996 25.8813 9.49137 25.978 9.3947C26.7786 8.59454 27.2194 7.52865 27.2194 6.39434C27.2194 5.26004 26.7791 4.19365 25.978 3.39349Z" fill="#DC7000"/>
<path d="M2.38016 2.96614C2.574 2.7723 2.574 2.45898 2.38016 2.26513C2.18631 2.07129 1.87299 2.07129 1.67915 2.26513C-0.559716 4.504 -0.559716 8.14686 1.67915 10.3857C1.77582 10.4824 1.90274 10.531 2.02965 10.531C2.15657 10.531 2.28348 10.4824 2.38016 10.3857C2.574 10.1919 2.574 9.87856 2.38016 9.68472C0.527491 7.83255 0.527491 4.81881 2.38016 2.96614Z" fill="#DC7000"/>
<path d="M4.46779 3.25666C4.27395 3.06282 3.96062 3.06282 3.76678 3.25666C2.96612 4.05683 2.52539 5.12272 2.52539 6.25702C2.52539 7.39133 2.96612 8.45722 3.76678 9.25787C3.86345 9.35455 3.99037 9.40313 4.11728 9.40313C4.2442 9.40313 4.37112 9.35455 4.46779 9.25787C4.66163 9.06403 4.66163 8.75071 4.46779 8.55686C3.85453 7.94361 3.51692 7.12659 3.51692 6.25702C3.51692 5.38745 3.85403 4.57093 4.46779 3.95767C4.66114 3.76433 4.66114 3.45051 4.46779 3.25666Z" fill="#DC7000"/>
</svg>
