<svg width="40" height="40" viewBox="0 0 40 40" fill="none" xmlns="http://www.w3.org/2000/svg">
<g clip-path="url(#clip0_1_191)">
<path d="M8.18528 14.0208H0V16.3447H8.18528C8.82597 16.3447 9.34722 16.8659 9.34722 17.5066C9.34722 18.1473 8.82597 18.6686 8.18528 18.6686H3.48583C1.56374 18.6686 0 20.2323 0 22.1544V25.6402H2.32389V22.1544C2.32389 21.5137 2.84514 20.9924 3.48583 20.9924H8.18528C10.1074 20.9924 11.6711 19.4287 11.6711 17.5066C11.6711 15.5845 10.1074 14.0208 8.18528 14.0208Z" fill="#DC7000"/>
<path d="M20.4114 14.0208C18.4893 14.0208 16.9255 15.5845 16.9255 17.5066V22.1544C16.9255 22.7951 16.4043 23.3163 15.7636 23.3163H10.509V25.6402H15.7636C17.6857 25.6402 19.2494 24.0765 19.2494 22.1544V17.5066C19.2494 16.8659 19.7707 16.3447 20.4114 16.3447H25.6659V14.0208H20.4114Z" fill="#DC7000"/>
<path d="M37.3371 20.9923V16.3447C37.3371 15.0633 36.2946 14.0208 35.0132 14.0208C34.573 14.0208 34.1443 14.1447 33.7731 14.3791L26.4142 19.0269C25.7355 19.4555 25.3303 20.1902 25.3303 20.9924C25.3303 22.2738 26.3728 23.3163 27.6542 23.3163H35.0132V25.6402H37.3371V23.3163H39.661V20.9924L37.3371 20.9923ZM35.0132 20.9922L27.6551 20.9917L35.0132 16.3447V20.9922Z" fill="#DC7000"/>
</g>
<defs>
<clipPath id="clip0_1_191">
<rect width="39.661" height="39.661" fill="white"/>
</clipPath>
</defs>
</svg>
