<svg width="16" height="18" viewBox="0 0 16 18" fill="none" xmlns="http://www.w3.org/2000/svg">
<path fill-rule="evenodd" clip-rule="evenodd" d="M7.93223 7.2C8.88701 7.2 9.80268 6.82071 10.4778 6.14558C11.1529 5.47045 11.5322 4.55478 11.5322 3.6C11.5322 2.64522 11.1529 1.72955 10.4778 1.05442C9.80268 0.379285 8.88701 0 7.93223 0C6.97745 0 6.06177 0.379285 5.38664 1.05442C4.71151 1.72955 4.33223 2.64522 4.33223 3.6C4.33223 4.55478 4.71151 5.47045 5.38664 6.14558C6.06177 6.82071 6.97745 7.2 7.93223 7.2ZM2.83088 18C1.00909 18 -0.525532 16.4686 0.171639 14.7855C0.593778 13.7663 1.21252 12.8403 1.99253 12.0603C2.77254 11.2803 3.69855 10.6616 4.71769 10.2394C5.73682 9.81727 6.82912 9.6 7.93223 9.6C9.03533 9.6 10.1276 9.81727 11.1468 10.2394C12.1659 10.6616 13.0919 11.2803 13.8719 12.0603C14.6519 12.8403 15.2707 13.7663 15.6928 14.7855C16.39 16.4686 14.8554 18 13.0336 18H2.83088Z" fill="#DC7000"/>
</svg>
