<svg width="12" height="10" viewBox="0 0 12 10" fill="none" xmlns="http://www.w3.org/2000/svg">
<path d="M11.2787 5.9879C11.2296 5.99587 11.1799 5.99954 11.1302 5.9989L2.66446 5.9989L2.84906 6.08476C3.0295 6.17016 3.19365 6.28639 3.33417 6.42819L5.70818 8.80221C6.02084 9.10068 6.07338 9.58082 5.83267 9.93984C5.55253 10.3224 5.01529 10.4055 4.63268 10.1254C4.60177 10.1027 4.57239 10.078 4.54478 10.0515L0.251816 5.75849C-0.0836792 5.42337 -0.0839744 4.87975 0.251145 4.54425C0.25136 4.54404 0.251602 4.5438 0.251816 4.54358L4.54478 0.250614C4.88055 -0.0842104 5.42417 -0.0834599 5.75902 0.252304C5.78537 0.278732 5.80998 0.306851 5.83267 0.336473C6.07338 0.695499 6.02084 1.17564 5.70818 1.47411L3.33846 3.85241C3.21249 3.97852 3.06765 4.08426 2.90916 4.1658L2.65159 4.28171L11.083 4.28171C11.5216 4.26542 11.9064 4.57181 11.9888 5.00293C12.0647 5.471 11.7468 5.91197 11.2787 5.9879Z" fill="white"/>
</svg>
