<svg width="12" height="10" viewBox="0 0 12 10" fill="none" xmlns="http://www.w3.org/2000/svg">
<path d="M0.721267 5.9879C0.770368 5.99587 0.820059 5.99954 0.869777 5.9989L9.33554 5.9989L9.15094 6.08476C8.9705 6.17016 8.80635 6.28639 8.66583 6.42819L6.29182 8.80221C5.97916 9.10068 5.92662 9.58082 6.16733 9.93984C6.44747 10.3224 6.98471 10.4055 7.36732 10.1254C7.39823 10.1027 7.42761 10.078 7.45522 10.0515L11.7482 5.75849C12.0837 5.42337 12.084 4.87975 11.7489 4.54425C11.7486 4.54404 11.7484 4.5438 11.7482 4.54358L7.45522 0.250614C7.11945 -0.0842104 6.57583 -0.0834599 6.24098 0.252304C6.21463 0.278732 6.19002 0.306851 6.16733 0.336473C5.92662 0.695499 5.97916 1.17564 6.29182 1.47411L8.66154 3.85241C8.78751 3.97852 8.93235 4.08426 9.09084 4.1658L9.34841 4.28171L0.917026 4.28171C0.478418 4.26542 0.0936079 4.57181 0.0112095 5.00293C-0.0646954 5.471 0.2532 5.91197 0.721267 5.9879Z" fill="white"/>
</svg>
